<svg width="400" height="400" viewBox="0 0 400 400" fill="none" xmlns="http://www.w3.org/2000/svg">
<path d="M203.359 169.676V235.512H294.85C290.832 256.685 278.776 274.613 260.695 286.667L315.867 329.477C348.013 299.805 366.558 256.223 366.558 204.45C366.558 192.396 365.477 180.804 363.467 169.678L203.359 169.676Z" fill="#4285F4"/>
<path d="M108.087 232.942L95.6438 242.468L51.5977 276.776C79.5703 332.257 136.902 370.585 203.356 370.585C249.255 370.585 287.736 355.44 315.864 329.477L260.692 286.667C245.546 296.867 226.228 303.05 203.356 303.05C159.157 303.05 121.603 273.223 108.157 233.041L108.087 232.942Z" fill="#34A853"/>
<path d="M51.5988 124.396C40.0085 147.267 33.3638 173.077 33.3638 200.585C33.3638 228.094 40.0085 253.903 51.5988 276.775C51.5988 276.929 108.163 232.884 108.163 232.884C104.763 222.684 102.754 211.867 102.754 200.584C102.754 189.3 104.763 178.483 108.163 168.283L51.5988 124.396Z" fill="#FBBC05"/>
<path d="M203.36 98.2767C228.397 98.2767 250.651 106.931 268.423 123.622L317.105 74.941C287.586 47.4324 249.26 30.5859 203.36 30.5859C136.906 30.5859 79.5703 68.7586 51.5977 124.395L108.16 168.286C121.605 128.104 159.16 98.2767 203.36 98.2767Z" fill="#EA4335"/>
</svg>
