<svg width="810" height="410" viewBox="0 0 810 410" fill="none" xmlns="http://www.w3.org/2000/svg">
<g clip-path="url(#clip0_2870_4238)">
<path d="M724.484 317.6C724.106 317.6 723.8 317.294 723.8 316.916V316.916C723.8 316.839 723.813 316.763 723.838 316.69C729.819 299.537 734.2 284.726 734.2 250V93.2C734.2 61.3191 728.244 42.9371 711.982 25.001C711.866 24.8725 711.8 24.7039 711.8 24.5304V24.5304C711.8 24.2171 712.009 23.9424 712.311 23.8592L792.673 1.74132C795.856 0.86518 799 3.26037 799 6.56207V250C799 283.529 803.779 299.532 809.762 316.69C809.787 316.763 809.8 316.839 809.8 316.916V316.916C809.8 317.294 809.494 317.6 809.116 317.6H724.484Z" fill="black"/>
<path d="M574.937 324C548.537 324 527.737 309.6 527.737 281.2C527.737 236.471 582.2 215.19 628.973 204.855C631.282 204.344 632.937 202.307 632.937 199.942V186C632.937 161.6 622.537 150.4 593.337 150.4C577.391 150.4 559.643 153.644 542.146 160.815C540.514 161.483 538.625 160.932 537.647 159.465V159.465C536.751 158.122 536.841 156.348 537.899 155.129C558.06 131.905 590.605 110.4 633.337 110.4C677.737 110.4 698.137 133.2 698.137 167.2V260.8C698.137 285.601 706.6 291.2 719.8 291.2C725.022 291.2 730.624 287.26 732.647 277.843C733.195 275.292 735.313 273.268 737.922 273.268H740.3C743.868 273.268 746.437 276.945 745.392 280.357C739.93 298.188 731.259 329.8 688.8 328.5C667.937 328.5 650.937 316.589 642.968 302.169C640.833 298.307 634.398 297.116 631.277 300.235C618.007 313.503 596.922 324 574.937 324ZM584.537 260.8C584.537 276 594.537 286.8 612.137 286.8C619.303 286.8 625.886 284.763 630.646 282.178C632.115 281.38 632.937 279.796 632.937 278.124V222.712C632.937 219.365 629.705 216.963 626.547 218.073C599.715 227.502 584.537 242.599 584.537 260.8Z" fill="black"/>
<path d="M313.726 409.6C313.154 409.6 312.69 409.137 312.69 408.565V408.565C312.69 408.456 312.708 408.347 312.742 408.243C319.511 387.515 323.49 370.707 323.49 334V219.5C323.49 187.927 327.686 145.159 311.469 123.66C311.043 123.095 310.8 122.414 310.8 121.707V121.707C310.8 120.155 311.944 118.84 313.48 118.626L380.999 109.195C384.006 108.775 386.69 111.111 386.69 114.147V140.729C386.69 141.688 387.396 142.501 388.345 142.637V142.637C389.05 142.738 389.749 142.443 390.178 141.875C402.322 125.804 424.085 110.4 455.09 110.4C503.49 110.4 535.09 151.2 535.09 211.6C535.09 274.4 498.29 324 425.89 324C414.071 324 403.782 322.725 394.819 320.581C391.548 319.798 388.29 322.206 388.29 325.57V334.4C388.29 369.508 391.872 387.506 399.034 408.236C399.071 408.344 399.09 408.459 399.09 408.573V408.573C399.09 409.14 398.631 409.6 398.063 409.6H313.726ZM425.09 312.4C453.49 312.4 467.49 278 467.49 226C467.49 169.2 451.49 145.6 419.89 145.6C407.85 145.6 398.139 149.261 390.454 154.155C389.078 155.031 388.29 156.572 388.29 158.204V249.6C388.29 295.2 405.49 312.4 425.09 312.4Z" fill="black"/>
<path d="M155.6 323.999C69.6 323.999 0 257.999 0 171.999C0 85.9992 69.6 19.1992 155.6 19.1992C241.6 19.1992 311.6 85.9992 311.6 171.999C311.6 257.999 241.6 323.999 155.6 323.999ZM155.6 310.799C208.8 310.799 233.6 256.799 233.6 171.999C233.6 87.1992 209.2 32.7992 155.6 32.7992C102 32.7992 78 87.5992 78 171.999C78 256.399 102.4 310.799 155.6 310.799Z" fill="black"/>
</g>
<defs>
<clipPath id="clip0_2870_4238">
<rect width="810" height="410" fill="white"/>
</clipPath>
</defs>
</svg>
