<svg width="400" height="400" viewBox="0 0 400 400" fill="none" xmlns="http://www.w3.org/2000/svg">
<path d="M155.904 152.852V115.201C155.904 112.714 156.582 110.905 159.179 109.435L228.978 68.8442C238.353 63.4171 250.325 60.9296 261.958 60.9296C306.119 60.9296 334.016 94.9623 334.016 131.595C334.016 134.535 334.016 138.492 333.338 141.771L260.264 99.0326C256.649 96.8844 252.696 96.5452 248.292 99.0326L155.904 152.852ZM317.3 286.608V202.94C317.3 198.191 315.493 195.025 311.201 192.425L218.587 138.492L251.115 119.611C252.922 118.48 255.859 118.48 257.666 119.611L327.917 160.201C347.795 171.847 361.574 197.173 361.574 221.369C361.461 249.975 344.068 276.432 317.3 286.608ZM136.703 214.472L104.515 195.251C102.03 193.781 101.239 191.972 101.239 189.485V108.756C101.239 69.2965 131.282 39.5603 172.168 39.5603C188.093 39.5603 203.34 44.9874 215.538 54.8241L142.915 97.1105C138.624 99.598 136.816 102.877 136.816 107.626V214.472H136.703ZM199.726 250.766L155.904 226.118V173.995L199.726 149.347L243.096 173.995V226.118L199.726 250.766ZM226.832 360.44C210.907 360.44 195.66 355.013 183.462 345.176L256.198 302.889C260.489 300.402 262.297 297.123 262.297 292.374V185.528L294.824 204.749C297.309 206.219 298.1 208.028 298.1 210.515V291.357C298.1 330.817 267.718 360.44 226.832 360.44ZM141.447 280.389L71.1963 239.799C51.3183 228.153 37.5392 202.827 37.5392 178.631C37.5392 149.686 55.2713 123.568 82.0389 113.392V197.399C82.0389 202.148 83.846 205.314 88.1378 207.915L180.413 261.508L147.885 280.389C146.191 281.52 143.254 281.52 141.447 280.389ZM137.042 339.07C95.4792 339.07 64.9844 307.864 64.9844 269.196C64.9844 265.578 65.3233 261.96 65.6621 258.681L138.398 300.741C142.689 303.229 146.304 303.229 150.708 300.741L242.983 247.148V284.799C242.983 287.286 242.306 289.095 239.708 290.565L170.022 331.156C160.647 336.583 148.675 339.07 137.042 339.07ZM226.832 380C270.203 380 306.457 348.794 314.363 307.525C354.91 297.349 381 259.698 381 221.256C381 195.93 370.157 171.621 350.279 153.869C352.086 146.294 353.555 138.266 353.555 130.691C353.555 79.5854 311.992 41.2563 264.217 41.2563C254.39 41.2563 244.677 43.0653 235.303 46.3442C218.926 30.0628 196.789 20 172.168 20C128.797 20 92.5426 51.206 84.6366 92.4749C44.0899 102.651 18 140.301 18 178.744C18 204.07 28.8426 228.379 48.7206 246.131C46.9135 253.706 45.4452 261.734 45.4452 269.309C45.4452 320.415 87.0084 358.744 134.783 358.744C144.61 358.744 154.323 356.935 163.697 353.656C180.187 369.937 202.211 380 226.832 380Z" fill="black"/>
</svg>
