<svg width="400" height="400" viewBox="0 0 400 400" fill="none" xmlns="http://www.w3.org/2000/svg">
<path d="M156.306 152.471V116.912C156.306 114.563 156.946 112.854 159.401 111.466L225.354 73.1307C234.212 68.005 245.524 65.6558 256.517 65.6558C298.244 65.6558 324.604 97.7977 324.604 132.396C324.604 135.172 324.604 138.91 323.964 142.006L254.916 101.642C251.501 99.6131 247.765 99.2927 243.603 101.642L156.306 152.471ZM308.81 278.796V199.776C308.81 195.291 307.102 192.301 303.047 189.845L215.536 138.91L246.271 121.077C247.979 120.009 250.754 120.009 252.461 121.077L318.841 159.412C337.624 170.411 350.644 194.33 350.644 217.182C350.537 244.198 334.102 269.186 308.81 278.796ZM138.163 210.668L107.748 192.515C105.4 191.127 104.653 189.418 104.653 187.069V110.825C104.653 73.5578 133.041 45.4736 171.674 45.4736C186.721 45.4736 201.129 50.5992 212.654 59.8894L144.033 99.8266C139.978 102.176 138.27 105.273 138.27 109.758V210.668H138.163ZM197.713 244.946L156.306 221.667V172.44L197.713 149.161L238.694 172.44V221.667L197.713 244.946ZM223.326 348.526C208.279 348.526 193.872 343.401 182.346 334.111L251.074 294.173C255.129 291.824 256.837 288.727 256.837 284.242V183.332L287.572 201.485C289.92 202.873 290.667 204.582 290.667 206.931V283.281C290.667 320.549 261.959 348.526 223.326 348.526ZM142.646 272.923L76.2654 234.588C57.4826 223.589 44.4627 199.67 44.4627 176.818C44.4627 149.481 61.2178 124.814 86.5106 115.204V194.544C86.5106 199.029 88.2181 202.019 92.2735 204.475L179.464 255.09L148.729 272.923C147.128 273.991 144.353 273.991 142.646 272.923ZM138.484 328.344C99.2103 328.344 70.3958 298.872 70.3958 262.352C70.3958 258.935 70.7159 255.518 71.0361 252.421L139.764 292.144C143.82 294.494 147.235 294.494 151.397 292.144L238.587 241.529V277.088C238.587 279.437 237.947 281.146 235.493 282.534L169.646 320.869C160.788 325.995 149.476 328.344 138.484 328.344ZM223.326 367C264.307 367 298.564 337.528 306.035 298.551C344.348 288.941 369 253.382 369 217.075C369 193.156 358.755 170.197 339.972 153.432C341.68 146.278 343.067 138.696 343.067 131.541C343.067 83.2751 303.794 47.0754 258.651 47.0754C249.366 47.0754 240.188 48.7839 231.33 51.8807C215.856 36.5038 194.939 27 171.674 27C130.693 27 96.4356 56.4724 88.9652 95.4485C50.6525 105.059 26 140.618 26 176.925C26 200.844 36.2452 223.803 55.028 240.568C53.3205 247.722 51.9331 255.304 51.9331 262.459C51.9331 310.725 91.2063 346.925 136.349 346.925C145.634 346.925 154.812 345.216 163.67 342.119C179.251 357.496 200.061 367 223.326 367Z" fill="black"/>
</svg>
